<svg width="418" height="162" viewBox="0 0 418 162" fill="none" xmlns="http://www.w3.org/2000/svg">
<g clip-path="url(#clip0_350_51)">
<path d="M344.915 106.547C343.339 106.547 341.587 106.284 339.778 105.496C334.378 103.132 331.051 97.1774 331.489 90.6686L331.576 89.4135L332.831 89.3259C333.911 89.2384 339.661 89.034 344.068 93.5289C347.337 96.8271 348.038 100.797 348.125 103.161C349.176 102.869 349.818 102.519 349.906 102.49C354.138 100.271 355.598 95.8639 355.568 92.7701C355.539 89.2384 353.671 86.7866 352.766 85.6191C352.533 85.298 352.241 84.9478 351.92 84.5975C350.782 85.6191 349.293 86.6699 347.454 87.3995C339.807 90.435 332.043 84.8018 331.197 84.1597L330 83.2549L330.934 82.0874C332.393 80.2778 334.874 77.9136 338.523 76.9796C343.368 75.7245 348.184 77.5633 351.803 80.5113C352.007 80.2486 352.183 80.0151 352.329 79.84C353.496 78.2638 355.685 75.3451 355.393 71.3172C355.189 68.6611 354.109 66.8223 353.233 65.7424C350.927 62.9112 347.688 62.2398 345.966 62.0939C344.36 61.9772 341.296 62.0355 338.581 64.1079C335.575 66.4137 334.057 70.354 334.641 74.4111L331.751 74.8197C331.022 69.7119 332.977 64.7208 336.801 61.7728C340.274 59.0876 344.185 59 346.199 59.146C348.388 59.3211 352.504 60.1967 355.481 63.8452C356.619 65.2462 358.049 67.6396 358.283 71.0545C358.662 76.1915 355.86 79.9275 354.664 81.5328C354.488 81.7663 354.255 82.0874 353.934 82.4668C354.342 82.9047 354.722 83.3717 355.101 83.8387C356.094 85.1521 358.458 88.2168 358.487 92.7409C358.545 97.9071 355.685 102.752 351.249 105.087C350.869 105.292 348.301 106.547 344.915 106.547ZM334.378 92.2155C334.524 96.9439 337.034 101.089 340.945 102.811C342.434 103.482 343.981 103.657 345.236 103.628C345.236 101.789 344.769 98.3741 341.996 95.5721C339.398 92.916 336.188 92.3322 334.378 92.2155ZM334.32 82.7003C336.655 84.1013 341.704 86.5239 346.403 84.6559C347.775 84.1013 348.884 83.3425 349.789 82.5836C347.104 80.4529 343.339 78.7016 339.282 79.7524C337.151 80.307 335.516 81.5036 334.32 82.6712V82.7003Z" fill="#B8AE95"/>
<path d="M334.728 75.0532C333.036 75.0532 331.868 74.7905 331.751 74.7613L332.423 71.9301C332.423 71.9301 338.26 73.2728 342.259 69.2157C345.353 66.0634 345.178 61.9188 345.119 61.1307L348.038 60.8972C348.155 62.3274 348.242 67.3185 344.36 71.288C341.237 74.4403 337.384 75.0824 334.758 75.0824L334.728 75.0532Z" fill="#B8AE95"/>
<path d="M362.106 106.605C359.538 106.605 357.582 105.905 357.29 105.788C353.525 104.358 351.511 101.643 350.636 100.125C349.672 98.4617 348.563 95.718 348.914 92.128C349.264 88.0417 351.424 85.0646 353.233 83.1966C352.037 82.0582 350.928 80.628 350.11 78.8476C349.322 77.1547 347.717 72.7182 349.585 67.6688C350.782 64.3998 352.766 61.9772 355.422 60.4886C360.822 57.5115 366.222 59.8173 367.273 60.3135C370.454 61.8604 372.118 64.3414 372.993 65.6548C375.212 68.9822 375.854 72.3972 376 74.6446L373.081 74.8197C372.964 72.9225 372.439 70.0621 370.571 67.2601C369.724 66.0051 368.469 64.1079 365.988 62.9112C365.492 62.6777 361.056 60.6637 356.823 63.0279C353.73 64.75 352.65 67.6979 352.299 68.6611C350.811 72.689 352.124 76.2499 352.737 77.5925C353.438 79.0811 354.372 80.2486 355.393 81.1826C357.349 79.5481 361.231 76.3667 366.864 76.9212C371.505 77.359 374.628 80.1027 376.087 81.6788L377.138 82.8171L375.941 83.7803C374.511 84.9478 369.316 88.6546 362.398 87.5747C361.523 87.4288 358.545 86.8742 355.568 84.9478C353.992 86.4948 352.153 88.9465 351.832 92.3323C351.57 95.1635 352.416 97.2942 353.175 98.6076C353.73 99.5416 355.306 101.847 358.341 103.015C358.37 103.015 358.545 103.102 358.808 103.161C358.867 101.293 359.304 99.0162 360.589 96.6812C361.114 95.6888 362.778 92.6825 366.484 90.8729C369.783 89.2676 372.935 89.5011 374.511 89.7638L375.766 89.9973V91.2523C375.503 98.0239 371.738 103.861 366.397 105.788C364.879 106.342 363.42 106.517 362.106 106.517V106.605ZM361.698 103.686C362.836 103.715 364.12 103.599 365.405 103.132C369.286 101.731 372.118 97.586 372.701 92.595C371.388 92.5366 369.608 92.6825 367.769 93.5873C364.879 94.9883 363.566 97.3817 363.128 98.1698C362.019 100.184 361.698 102.139 361.698 103.686ZM357.845 82.9922C360.209 84.3057 362.398 84.6851 362.807 84.7435C367.185 85.4148 370.746 83.7803 372.731 82.5252C371.359 81.3577 369.286 80.1027 366.601 79.84C362.69 79.4897 359.684 81.4745 357.845 82.9631V82.9922Z" fill="#B8AE95"/>
<path d="M372.818 75.1699C370.512 75.1699 367.389 74.6737 364.5 72.543C358.604 68.2232 358.75 61.2474 358.779 60.4594L361.698 60.5761C361.698 60.8096 361.493 66.7055 366.222 70.1788C370.191 73.0684 374.628 72.1636 375.503 71.9593L376.204 74.7905C375.766 74.9072 374.511 75.1699 372.847 75.1699H372.818Z" fill="#B8AE95"/>
</g>
<path d="M52.9238 103.129H70.8535V106H46.5078V62.4355H52.9238V103.129ZM111.078 106H104.311L101.908 100.346H78.0898L75.7461 106H72.2012L88.168 68.0312L85.8242 62.4355H92.6797L111.078 106ZM79.291 97.4746H100.707L89.8965 72.1621L79.291 97.4746ZM150.57 61.5273C153.969 61.5273 157.113 62.084 160.004 63.1973C162.914 64.291 165.492 65.8145 167.738 67.7676L166.098 69.9355C165.199 69.1738 164.203 68.4609 163.109 67.7969C162.016 67.1328 160.863 66.5664 159.652 66.0977C158.441 65.6094 157.182 65.2285 155.873 64.9551C154.564 64.6621 153.246 64.5156 151.918 64.5156C149.066 64.5156 146.537 65.0332 144.33 66.0684C142.123 67.1035 140.268 68.5195 138.764 70.3164C137.26 72.1133 136.117 74.2129 135.336 76.6152C134.555 79.0176 134.164 81.5957 134.164 84.3496C134.164 87.0449 134.545 89.584 135.307 91.9668C136.088 94.3496 137.221 96.4395 138.705 98.2363C140.209 100.033 142.064 101.459 144.271 102.514C146.479 103.549 149.008 104.066 151.859 104.066C153.227 104.066 154.613 103.93 156.02 103.656C157.426 103.383 158.783 102.982 160.092 102.455C161.4 101.928 162.631 101.283 163.783 100.521C164.955 99.7598 165.99 98.8906 166.889 97.9141L168.559 100.053C166.254 102.24 163.578 103.949 160.531 105.18C157.484 106.41 154.164 107.025 150.57 107.025C148.402 107.025 146.322 106.752 144.33 106.205C142.338 105.678 140.473 104.916 138.734 103.92C137.016 102.924 135.443 101.742 134.018 100.375C132.611 98.9883 131.4 97.4551 130.385 95.7754C129.389 94.0957 128.607 92.2988 128.041 90.3848C127.494 88.4512 127.221 86.4395 127.221 84.3496C127.221 82.2598 127.494 80.2383 128.041 78.2852C128.607 76.332 129.389 74.5156 130.385 72.8359C131.4 71.1367 132.611 69.5938 134.018 68.207C135.443 66.8203 137.016 65.6387 138.734 64.6621C140.473 63.666 142.338 62.8945 144.33 62.3477C146.322 61.8008 148.402 61.5273 150.57 61.5273ZM202.221 62.4355H208.637V106H202.221V102.572L195.072 104.975C194.096 105.307 193.109 105.59 192.113 105.824C191.117 106.059 190.15 106.254 189.213 106.41C188.275 106.566 187.387 106.674 186.547 106.732C185.707 106.811 184.965 106.85 184.32 106.85C182.934 106.85 181.752 106.693 180.775 106.381C179.799 106.088 178.988 105.707 178.344 105.238C177.699 104.75 177.191 104.213 176.82 103.627C176.449 103.041 176.166 102.475 175.971 101.928C175.795 101.381 175.678 100.883 175.619 100.434C175.58 99.9648 175.561 99.623 175.561 99.4082V62.4355H182.006V96.8887C182.006 97.2598 182.045 97.7871 182.123 98.4707C182.201 99.1348 182.426 99.7988 182.797 100.463C183.168 101.107 183.744 101.674 184.525 102.162C185.307 102.65 186.4 102.895 187.807 102.895C188.959 102.895 190.082 102.836 191.176 102.719C192.27 102.602 193.383 102.426 194.516 102.191C195.668 101.957 196.869 101.664 198.119 101.312C199.369 100.941 200.736 100.502 202.221 99.9941V62.4355ZM214.174 62.4355H220.912L235.238 97.9727L250.18 62.4355H253.49L236.85 102.045L238.49 106H231.576L214.174 62.4355ZM285.629 62.4355V65.3066H265.385V78.5195H285.014V81.3906H265.385V103.129H285.629V106H258.969V62.4355H285.629ZM321.078 62.4355V65.3066H300.834V78.5195H320.463V81.3906H300.834V103.129H321.078V106H294.418V62.4355H321.078Z" fill="#B8AE95"/>
<path d="M268.665 46.9854H276.629L267.605 57H264.393L268.665 46.9854Z" fill="#B8AE95"/>
<defs>
<clipPath id="clip0_350_51">
<rect width="47.138" height="47.6049" fill="white" transform="translate(330 59)"/>
</clipPath>
</defs>
</svg>
